<svg xmlns="http://www.w3.org/2000/svg" viewBox="0 0 1200 470" width="1200" height="470" role="img" aria-labelledby="t d">
<title id="t">Marx Alonso Chipana — Ingeniero de Software Full-Stack</title>
<desc id="d">Aplicaciones web de punta a punta: del diseño de la interfaz al despliegue en producción. Lima, Perú. 3 años de experiencia, 7 webs en producción. Disponible para trabajar.</desc>
<style>.m{font-family:ui-monospace,SFMono-Regular,'SF Mono','Cascadia Mono',Menlo,Consolas,'Liberation Mono','DejaVu Sans Mono',monospace}.s{font-family:-apple-system,BlinkMacSystemFont,'Segoe UI','Helvetica Neue',Helvetica,Arial,sans-serif}.blink{animation:blink 1.2s steps(1) infinite}@keyframes blink{50%{opacity:0}}@media (prefers-reduced-motion:reduce){.blink{animation:none}}</style>
<rect width="1200" height="470" rx="14" fill="#0a0b0d"/><rect x=".5" y=".5" width="1199" height="469" rx="13.5" fill="none" stroke="#fff" stroke-opacity=".1"/>
<g class="m">
  <text x="48" y="48" font-size="12" fill="#8a8f98" textLength="276.9">INGENIERO DE SOFTWARE FULL-STACK</text>
  <text x="996.9" y="48" font-size="12" fill="#8a8f98" textLength="155.1">LIMA, PERÚ · UTC−5</text>
</g>
<rect x="48" y="68" width="1104" height="1" fill="#fff" fill-opacity="0.1"/>
<g class="s" font-size="66" font-weight="600" letter-spacing="-1.8">
  <text x="45" y="170" fill="#ededed">Marx Alonso</text>
  <text x="45" y="242" fill="#8a8f98">Chipana</text>
</g>
<g class="s" font-size="19" fill="#a4a9b1">
  <text x="48" y="298">Aplicaciones web de punta a punta:</text>
  <text x="48" y="325">del diseño de la interfaz al despliegue en producción.</text>
</g>

  <rect x="672" y="98" width="444" height="250" rx="12" fill="#0e1013" stroke="#ededed" stroke-opacity=".5" stroke-width="1.25"/>
  <rect x="683" y="109" width="422" height="228" rx="5" fill="#07080a" stroke="#fff" stroke-opacity=".08"/>
  <g fill="none" stroke="#5c6068"><circle cx="701" cy="124" r="3.5"/><circle cx="714" cy="124" r="3.5"/><circle cx="727" cy="124" r="3.5"/></g>
  <rect x="683" y="138" width="422" height="1" fill="#fff" fill-opacity="0.08"/>
  <g class="m">
    <text x="894" y="128" font-size="11" fill="#5c6068" text-anchor="middle">marx — zsh</text>
    <text x="704" y="170" font-size="15" fill="#5b9cff">$</text><text x="722" y="170" font-size="15" fill="#ededed" textLength="54">whoami</text>
    <text x="704" y="194" font-size="15" fill="#a4a9b1" textLength="315">marx · full-stack software engineer</text>
    <text x="704" y="218" font-size="15" fill="#5b9cff">$</text><text x="722" y="218" font-size="15" fill="#ededed" textLength="126">ls frameworks/</text>
    <text x="704" y="242" font-size="15" fill="#a4a9b1" textLength="45">react</text><text x="785" y="242" font-size="15" fill="#a4a9b1" textLength="63">next.js</text><text x="875" y="242" font-size="15" fill="#a4a9b1" textLength="45">astro</text><text x="956" y="242" font-size="15" fill="#a4a9b1" textLength="63">angular</text>
    <text x="704" y="266" font-size="15" fill="#a4a9b1" textLength="54">nestjs</text><text x="785" y="266" font-size="15" fill="#a4a9b1" textLength="63">fastapi</text><text x="875" y="266" font-size="15" fill="#a4a9b1" textLength="54">spring</text><text x="956" y="266" font-size="15" fill="#a4a9b1" textLength="63">laravel</text>
    <text x="704" y="290" font-size="15" fill="#a4a9b1" textLength="81">wordpress</text>
    <text x="704" y="314" font-size="15" fill="#5b9cff">$</text>
    <rect class="blink" x="722" y="301.4" width="8.25" height="16.5" fill="#ededed"/>
  </g>
  <path d="M636 348H1152v5a9 9 0 0 1-9 9H645a9 9 0 0 1-9-9z" fill="#0e1013" stroke="#ededed" stroke-opacity=".5" stroke-width="1.25"/>
  <path d="M856 348h76v2a4 4 0 0 1-4 4h-68a4 4 0 0 1-4-4z" fill="none" stroke="#ededed" stroke-opacity=".3"/>
<rect x="48" y="386" width="1104" height="1" fill="#fff" fill-opacity="0.1"/>
<text class="s" x="48" y="426" font-size="23" font-weight="600" fill="#ededed">3 años</text><g class="m"><text x="48" y="447" font-size="11" fill="#8a8f98" textLength="85.6">EXPERIENCIA</text></g>
<text class="s" x="214" y="426" font-size="23" font-weight="600" fill="#ededed">7</text><g class="m"><text x="214" y="447" font-size="11" fill="#8a8f98" textLength="140.9">WEBS EN PRODUCCIÓN</text></g>
<text class="s" x="446" y="426" font-size="23" font-weight="600" fill="#ededed">30</text><g class="m"><text x="446" y="447" font-size="11" fill="#8a8f98" textLength="85.6">TECNOLOGÍAS</text></g>
<circle cx="930.7" cy="426" r="4" fill="#3fb950"/>
<g class="m"><text x="944.7" y="430" font-size="12" fill="#a4a9b1" textLength="207.3">DISPONIBLE PARA TRABAJAR</text></g>
</svg>
